<?xml version="1.0" encoding="UTF-8" standalone="no"?>
<!-- Created with Inkscape (http://www.inkscape.org/) -->

<svg
   xmlns:dc="http://purl.org/dc/elements/1.1/"
   xmlns:cc="http://creativecommons.org/ns#"
   xmlns:rdf="http://www.w3.org/1999/02/22-rdf-syntax-ns#"
   xmlns:svg="http://www.w3.org/2000/svg"
   xmlns="http://www.w3.org/2000/svg"
   version="1.1"
   width="402.65625"
   height="196.5"
   id="svg2"
   xml:space="preserve">
   <defs
     id="defs6"><clipPath
       id="clipPath30-4"><path
         d="m 449.247,504.927 105.336,0 0,51.84 -105.336,0 0,-51.84 z"
         id="path32-0" /></clipPath></defs><g
     transform="matrix(1.25,0,0,-1.25,-82.843745,659.36248)"
     id="g10"><g
       transform="matrix(3.3767734,0,0,3.3767734,-1450.4657,-1353.0858)"
       clip-path="url(#clipPath30-4)"
       id="g28"><g
         transform="translate(489.3665,550.7009)"
         id="g34"><path
           d="m 0,0 c 1.617,1.165 3.602,1.851 5.747,1.851 0.515,0 1.02,-0.039 1.514,-0.116 L 6.619,-1.38 c -0.286,0.037 -0.577,0.056 -0.872,0.056 -1.406,0 -2.711,-0.435 -3.786,-1.178 L 0,0 z m 2.004,-13.509 c 1.067,-0.725 2.355,-1.149 3.743,-1.149 0.315,0 0.626,0.022 0.93,0.065 l 0.664,-3.112 c -0.519,-0.084 -1.052,-0.127 -1.594,-0.127 -2.114,0 -4.072,0.666 -5.676,1.8 l 1.933,2.523 z m -2.822,-1.815 c -1.882,1.687 -3.111,4.087 -3.262,6.775 l 3.179,0.052 c 0.128,-1.718 0.908,-3.254 2.094,-4.363 l -2.011,-2.464 z m -3.261,7.909 c 0.154,2.657 1.361,5.032 3.212,6.713 L 1.166,-3.147 C 0.001,-4.248 -0.766,-5.765 -0.9,-7.461 l -3.179,0.046 z M 8.428,1.481 c 2.636,-0.744 4.822,-2.559 6.06,-4.945 l -2.792,-1.459 c -0.821,1.576 -2.271,2.788 -4.01,3.313 l 0.742,3.091 z m 6.413,-13.285 c -1.139,-2.717 -3.469,-4.807 -6.333,-5.638 l -0.765,3.088 c 1.423,0.445 2.642,1.354 3.477,2.55 l 3.621,0 z"
           id="path36"
           style="fill:#f49700;fill-opacity:1;fill-rule:evenodd;stroke:none" /></g><g
         transform="translate(450.5434,512.8357)"
         id="g38"><path
           d="m 195.375,550.6875 c 0.61204,0.0929 1.23934,0.15625 1.90625,0.15625 0.48541,0 0.98334,-0.0634 1.46875,-0.15625 l -3.375,0 z m 160.3125,0 c 0.61204,0.0929 1.27059,0.15625 1.9375,0.15625 0.61626,0 1.2072,-0.0634 1.78125,-0.15625 l -3.71875,0 z m -205.125,14.9375 c -3.06864,0 -6.30636,1.29688 -7.59375,3.96875 -0.36722,0.76822 -0.5625,1.66432 -0.5625,2.65625 0,4.09856 3.2583,5.33064 6.5,6.1875 0.82731,0.21949 1.65662,0.42239 2.4375,0.625 2.24133,0.58249 4.03125,1.25252 4.03125,3 0,2.23289 -2.56583,2.71875 -4.25,2.71875 -2.57057,0 -4.8125,-1.12722 -4.8125,-4.03125 l -4.65625,0 c -0.0633,5.38173 4.47949,7.75 9.3125,7.75 5.93046,0 9.0625,-2.9943 9.0625,-7 0,-0.95816 -0.16484,-1.74948 -0.46875,-2.4375 -1.27895,-2.87026 -4.71261,-3.58546 -6,-3.90625 -5.47459,-1.4098 -6.53125,-1.62833 -6.53125,-3.3125 0,-1.22408 0.80199,-1.92499 1.78125,-2.25 0.48963,-0.16462 1.02473,-0.21875 1.53125,-0.21875 0.71756,0 1.37781,0.0499 1.96875,0.21875 l 0.0312,0 c 1.3085,0.37567 2.20698,1.25171 2.3125,3.0625 l 4.65625,0 c 0,-1.19031 -0.2426,-2.20142 -0.65625,-3.0625 -1.34649,-2.80272 -4.61145,-3.96875 -8.09375,-3.96875 z m 94.8125,0 c -3.70601,0 -6.57013,1.52481 -8.40625,3.96875 -1.50689,2.00496 -2.3125,4.63737 -2.3125,7.5625 0,0.64581 0.0448,1.28999 0.125,1.90625 0.72179,5.39017 4.52822,9.4375 10.59375,9.4375 5.35219,0 9.13959,-3.4612 9.625,-8.90625 l -4.65625,0 c -0.36722,2.87448 -2.03096,4.875 -4.96875,4.875 -3.55405,0 -5.28318,-2.48956 -5.78125,-5.40625 -0.10552,-0.61626 -0.125,-1.26888 -0.125,-1.90625 0,-3.8242 1.59664,-7.46875 5.90625,-7.46875 2.38485,0 4.47312,1.64292 4.78125,3.8125 l 4.65625,0 c -0.17306,-1.49844 -0.66588,-2.81724 -1.375,-3.90625 -1.68417,-2.57479 -4.68573,-3.96875 -8.0625,-3.96875 z m -161.53125,0.53125 0,3.4375 0,9.46875 0,8.9375 4.8125,0 0,-8.9375 0,-9.46875 0,-3.4375 -4.8125,0 z m 10.625,0 0,3.4375 0,9.46875 0,8.9375 4.5,0 0,-8.9375 0,-5.6875 3.5625,5.6875 5.59375,8.9375 4.8125,0 0,-8.9375 0,-9.46875 0,-3.4375 -4.5,0 0,3.4375 0,9.46875 0,1.75 -1.09375,-1.75 -5.9375,-9.46875 -2.15625,-3.4375 -4.78125,0 z m 24.28125,0 0,3.4375 0,9.46875 0,8.9375 4.5,0 0,-8.9375 0,-5.6875 3.5625,5.6875 5.59375,8.9375 4.78125,0 0,-8.9375 0,-9.46875 0,-3.4375 -4.46875,0 0,3.4375 0,9.46875 0,1.75 -1.125,-1.75 -5.90625,-9.46875 -2.15625,-3.4375 -4.78125,0 z m 45.75,0 0,3.4375 0,9.46875 0,8.9375 10.5625,0 c 3.94238,0 7.71875,-1.90751 7.71875,-6.34375 0,-0.96238 -0.16232,-1.82553 -0.5,-2.59375 -0.61204,-1.40558 -1.78207,-2.43943 -3.5,-2.9375 1.89521,-0.91595 2.96875,-2.42247 2.96875,-4.5625 0,-0.74711 -0.0998,-1.3947 -0.28125,-1.96875 -0.80198,-2.54946 -3.29384,-3.4375 -6.6875,-3.4375 l -10.28125,0 z m 23.125,0 0,3.4375 0,9.46875 0,8.9375 4.8125,0 0,-8.53125 4.8125,0 c 2.41861,0 3.28732,0.98504 3.625,3.28125 0.2406,1.74326 0.19876,3.87396 0.78125,5.25 l 4.78125,0 c -0.85686,-1.22408 -0.81339,-3.81146 -0.90625,-5.1875 -0.0929,-1.35915 -0.39226,-2.73697 -1.15625,-3.75 -0.47275,-0.6247 -1.12796,-1.10738 -2.03125,-1.34375 2.41861,-1.03836 3.46875,-2.9649 3.46875,-5.53125 0,-0.92017 -0.20372,-1.81287 -0.5625,-2.59375 -0.93705,-2.02606 -3.0157,-3.4375 -5.84375,-3.4375 l -11.78125,0 z m 23.59375,0 0,3.4375 0,9.46875 0,0.65625 c 0,5.93468 3.44114,8.78125 9.3125,8.78125 5.84182,0 9.3125,-2.87612 9.3125,-8.78125 l 0,-0.65625 0,-9.46875 0,-3.4375 -4.78125,0 0,3.4375 0,9.46875 0,0.65625 c 0,3.2417 -1.10382,4.75 -4.53125,4.75 -3.88329,0 -4.5,-2.36093 -4.5,-4.75 l 0,-0.65625 0,-9.46875 0,-3.4375 -4.8125,0 z m 48.65625,0 0,3.4375 0,9.46875 0,8.9375 4.8125,0 0,-7.03125 1.875,-1.90625 0.875,-0.875 0.59375,0.875 L 274,588 l 6.03125,0 -6.34375,-8.9375 -3.03125,-4.28125 5.125,-5.1875 3.40625,-3.4375 -5.96875,0 -3.25,3.4375 -5.28125,5.625 0,-5.625 0,-3.4375 -4.8125,0 z m -90.59375,3.71875 4.5,0 c 1.71371,0 3.3125,0.45453 3.3125,2.53125 0,1.83612 -1.25333,2.59375 -2.9375,2.59375 l -4.875,0 0,-5.125 z m 23.15625,0 5.25,0 c 2.14003,0 3.3125,0.92077 3.3125,3.03125 0,2.19912 -1.17247,3.125 -3.3125,3.125 l -5.25,0 0,-6.15625 z m -23.15625,8.40625 5.25,0 c 1.0679,0 1.95046,0.23675 2.5625,0.78125 0.56139,0.49385 0.875,1.24037 0.875,2.3125 0,2.26244 -1.63604,2.875 -3.53125,2.875 l -5.15625,0 0,-5.1875 0,-0.78125 z"
           transform="matrix(0.23691255,0,0,-0.23691255,-21.001489,137.18594)"
           id="path40"
           style="fill:#004782;fill-opacity:1;fill-rule:evenodd;stroke:none" /></g><g
         transform="translate(450.5434,515.0757)"
         id="g42" /><g
         transform="translate(475.8282,519.5557)"
         id="g46" /><path
         d="m 276.78125,394 c -13.1061,0 -25.23861,4.26526 -35.03125,11.5 l 8.28125,10.5625 c 7.5091,-5.44927 16.76319,-8.65625 26.75,-8.65625 2.45238,0 4.84064,0.19105 7.1875,0.5625 L 286.6875,394.8125 C 283.4669,394.268 280.15802,394 276.78125,394 z m 15.375,2.03125 -3.125,13.03125 c 12.30834,3.43165 22.50526,11.8879 28.25,23.03125 l 11.84375,-6.3125 c -7.5302,-14.46947 -20.89953,-25.41507 -36.96875,-29.75 z M 392.5,399.46875 c -2.96312,0.004 -5.50015,1.0314 -7.59375,3.125 -2.10204,2.10626 -3.15625,4.63063 -3.15625,7.59375 0,2.99267 1.04406,5.55421 3.125,7.65625 2.0936,2.11048 4.64078,3.1875 7.625,3.1875 2.98422,0 5.51874,-1.07702 7.625,-3.1875 2.10204,-2.1147 3.15625,-4.67203 3.15625,-7.65625 0,-2.97578 -1.05421,-5.50015 -3.15625,-7.59375 -2.10626,-2.0936 -4.64078,-3.125 -7.625,-3.125 z M 83.875,399.5 l 0,107.1875 21.4375,0 0,-74.40625 37.5625,39.875 37.5,-39.875 0,74.40625 21.4375,0 0,-107.1875 -19.09375,0 -39.875,41.6875 L 102.9375,399.5 z m 262.65625,0 0,107.1875 21.4375,0 0,-107.1875 z M 392.5,400.90625 c 2.56213,0 4.72046,0.93076 6.53125,2.75 1.79813,1.81079 2.71875,3.96912 2.71875,6.53125 0,2.58323 -0.92062,4.80576 -2.71875,6.625 -1.80235,1.81924 -3.96068,2.71875 -6.53125,2.71875 -2.57057,0 -4.76015,-0.89951 -6.5625,-2.71875 -1.78969,-1.81924 -2.6875,-4.04177 -2.6875,-6.625 0,-2.56213 0.88515,-4.72046 2.6875,-6.53125 1.81079,-1.81924 4.00882,-2.75 6.5625,-2.75 z m -4.34375,3.34375 0,11.84375 2.0625,0 0,-4.6875 1.65625,0 c 1.10589,0 1.87352,0.15299 2.3125,0.40625 0.74289,0.43898 1.125,1.31569 1.125,2.6875 l 0,0.9375 0.0312,0.40625 0.0625,0.25 1.875,-0.15625 -0.0937,-0.625 -0.0312,-0.875 0,-0.875 c 0,-0.59516 -0.22993,-1.1878 -0.65625,-1.8125 -0.43476,-0.62892 -1.10264,-1.00852 -2.03125,-1.15625 0.73445,-0.11819 1.30932,-0.33205 1.71875,-0.59375 0.77244,-0.5023 1.15625,-1.25726 1.15625,-2.3125 0,-1.48578 -0.61967,-2.49348 -1.84375,-3 -0.6838,-0.2828 -1.74985,-0.4375 -3.21875,-0.4375 z m 2.0625,1.4375 1.78125,0 c 1.15654,0 1.98082,0.14203 2.5,0.4375 0.52762,0.29125 0.8125,0.85767 0.8125,1.71875 -0.004,0.90751 -0.40832,1.54999 -1.21875,1.875 -0.43898,0.17306 -1.12204,0.25 -2,0.25 l -1.875,0 z m -152.5,3.09375 c -11.58233,10.25273 -19.1093,25.00024 -19.84375,41.5 l 13.40625,0.1875 c 0.67113,-12.43497 6.32169,-23.55355 15,-31.375 z m 39.0625,20.0625 c -4.99762,0 -9.65048,1.52066 -13.5,4.125 l 7.65625,9.75 c 1.72638,-0.98771 3.71638,-1.5625 5.84375,-1.5625 l 0.375,0 2.5,-12.15625 c -0.94128,-0.10975 -1.89996,-0.15625 -2.875,-0.15625 z M 284,429.9375 281.125,442 c 2.65077,1.05102 4.82072,3.024 6.125,5.53125 l 10.90625,-5.71875 C 295.22268,436.19861 290.13729,431.86648 284,429.9375 z m -24,5.6875 c -4.04791,3.90862 -6.71816,9.21735 -7.25,15.15625 l 12.40625,0.1875 c 0.37567,-2.20757 1.35878,-4.20853 2.78125,-5.8125 z m 5.125,19.1875 -12.375,0.21875 c 0.51074,6.02332 3.22409,11.39715 7.34375,15.34375 l 7.84375,-9.59375 c -1.45623,-1.63774 -2.4495,-3.70631 -2.8125,-5.96875 z m -33.84375,0.5625 -13.40625,0.21875 c 0.73445,16.67282 8.37553,31.54289 20.15625,41.8125 l 8.5,-10.375 c -8.82604,-7.84678 -14.59153,-19.07777 -15.25,-31.65625 z m 54.09375,5.59375 c -1.1481,1.2072 -2.55058,2.21231 -4.125,2.875 l 2.96875,12.0625 c 7.10811,-2.30887 12.774,-7.83695 15.28125,-14.84375 z m -14.40625,2.25 -7.53125,9.84375 c 3.8242,2.54524 8.40944,4.03125 13.34375,4.03125 1.0468,0 2.08072,-0.0921 3.09375,-0.21875 l -2.59375,-12.125 -0.5,0 c -2.1147,0 -4.09879,-0.55621 -5.8125,-1.53125 z m 44.5625,13.75 c -5.88403,9.47607 -15.15893,16.62819 -26.125,19.78125 l 3.21875,13.03125 c 16.98939,-4.72748 30.89611,-16.86902 38,-32.71875 z m -65.15625,13.125 -8.15625,10.65625 c 9.71244,7.03635 21.65478,11.15625 34.5625,11.15625 3.53717,0 6.97964,-0.30687 10.34375,-0.90625 l -2.78125,-13.09375 c -2.46082,0.40943 -4.98349,0.625 -7.5625,0.625 -9.83907,0 -18.95624,-3.13174 -26.40625,-8.4375 z m -53.09375,37.875 c -3.64269,0 -6.47216,1.44876 -8.3125,3.8125 -1.57442,2.03029 -2.40625,4.72608 -2.40625,7.71875 0,0.59094 0.0262,1.18017 0.0937,1.75 l 4.84375,0 c -0.0886,-0.56983 -0.15625,-1.16329 -0.15625,-1.75 0,-3.8242 1.62367,-7.5 5.9375,-7.5 2.26244,0 4.07205,1.23764 4.625,3.65625 l 4.59375,0 c -0.1604,-1.50266 -0.66758,-2.79443 -1.40625,-3.875 -1.70527,-2.49037 -4.70165,-3.8125 -7.8125,-3.8125 z M 191.5,541.25 l -4.84375,0 c 0.59516,4.86255 3.7169,8.66506 8.71875,9.4375 l 3.375,0 c 1.63351,-0.30813 3.23541,-1.17225 4.53125,-2.84375 l 0.5,2.46875 3.0625,0 0,-9.0625 0,-2.75 -9.1875,0 0,2.75 0,0.84375 4.84375,0 c -0.27436,3.02643 -2.09523,4.71875 -5.21875,4.71875 -3.61315,0 -5.31694,-2.58672 -5.78125,-5.5625 z m 166.125,-13.28125 c -3.64269,0 -6.47638,1.44876 -8.3125,3.8125 -1.57442,2.03029 -2.4375,4.72608 -2.4375,7.71875 0,0.59094 0.0262,1.14892 0.0937,1.71875 l 4.84375,0.0312 c -0.0886,-0.56983 -0.125,-1.16329 -0.125,-1.75 0,-3.8242 1.62367,-7.5 5.9375,-7.5 2.38485,0 4.44609,1.64292 4.75,3.8125 l 4.65625,0 c -0.17728,-1.56598 -0.70053,-2.91269 -1.46875,-4.03125 -1.70105,-2.48615 -4.62826,-3.8125 -7.9375,-3.8125 z m -5.8125,13.28125 -4.8438,-0.0312 c 0.59516,4.86255 3.71695,8.69631 8.7188,9.46875 l 3.71875,0 c 4.38981,-0.6838 7.37774,-3.96091 7.8125,-8.78125 l -4.65625,0 c -0.36722,2.87448 -2.00393,4.90625 -4.9375,4.90625 -3.61737,0 -5.34819,-2.58672 -5.8125,-5.5625 z m -267.96875,-12.78125 0,3.3125 0,9.46875 0,9.0625 4.5,0 0,-9.0625 0,-6.25 2.21875,6.25 3.1875,9.0625 3.71875,0 3.125,-9.0625 2.21875,-6.40625 0.0312,6.40625 0.0312,9.0625 4.5,0 0,-9.0625 0,-9.46875 0,-3.3125 -6.78125,0 -1.0625,3.3125 L 96.5,541.25 95.78125,543.5 95,541.25 l -3.25,-9.46875 -1.15625,-3.3125 z m 36.5625,0 -1.28125,3.3125 -3.5625,9.46875 -3.46875,9.0625 4.875,0 1.71875,-4.875 8.15625,0 1.65625,4.875 4.96875,0 -3.375,-9.0625 -3.53125,-9.46875 -1.25,-3.3125 z m 17.8125,0 0,3.3125 0,9.46875 0,9.0625 4.5,0 0,-9.0625 0,-5.5625 3.46875,5.5625 5.65625,9.0625 4.8125,0 0,-9.0625 0,-9.46875 0,-3.3125 -4.5,0 0,3.3125 0,9.46875 0,1.875 -1.1875,-1.875 -5.90625,-9.46875 -2.09375,-3.3125 z m 31.46875,0 -1.25,3.3125 -3.59375,9.46875 -3.4375,9.0625 4.84375,0 1.71875,-4.875 8.15625,0 1.65625,4.875 5,0 -3.40625,-9.0625 -3.53125,-9.46875 -1.25,-3.3125 z m 43.875,0 0,3.3125 0,9.46875 0,9.0625 16.5625,0 0,-4.03125 -11.75,0 0,-5.03125 -0.0312,0 0,-0.3125 10.59375,0 0,-3.75 -10.59375,0 0,-4.6875 11.53125,0 0,-0.71875 0,-3.3125 z m 22.65625,0 0,3.3125 0,9.46875 0,9.0625 4.5,0 0,-9.0625 0,-6.25 2.1875,6.25 3.21875,9.0625 3.6875,0 3.15625,-9.0625 2.21875,-6.40625 0.0312,6.40625 0.0312,9.0625 4.5,0 0,-9.0625 0,-9.46875 0,-3.3125 -6.78125,0 -1.0625,3.3125 -3.03125,9.46875 -0.71875,2.25 -0.78125,-2.25 -3.25,-9.46875 -1.15625,-3.3125 z m 30.59375,0 0,3.3125 0,9.46875 0,9.0625 16.5625,0 0,-4.03125 -11.78125,0 0,-5.03125 0,-0.3125 10.59375,0 0,-3.75 -10.59375,0 0,-4.6875 11.53125,0 0,-0.71875 0,-3.3125 z m 22.65625,0 0,3.3125 0,9.46875 0,9.0625 4.46875,0 0,-9.0625 0.0312,0 0,-5.5625 3.4375,5.5625 0.0312,0 5.65625,9.0625 4.8125,0 0,-9.0625 0,-9.46875 0,-3.3125 -4.5,0 0,3.3125 0,9.46875 0,1.875 -1.1875,-1.875 -5.90625,-9.46875 -2.09375,-3.3125 z m 23.78125,0 0,3.3125 0,0.71875 6.53125,0 0,8.75 0.0312,0 0,9.0625 4.78125,0 0,-9.0625 0,-8.75 6.5625,0 0,-0.71875 0,-3.3125 z m 60.09375,0 0,3.3125 0,9.46875 0,9.0625 16.5625,0 0,-4.03125 -11.78125,0 0,-5.03125 0,-0.3125 10.59375,0 0,-3.75 -10.59375,0 0,-4.6875 11.53125,0 0,-0.71875 0,-3.3125 z m 22.65625,0 0,3.3125 0,9.46875 0,9.0625 4.5,0 0,-9.0625 0,-5.5625 3.46875,5.5625 5.65625,9.0625 4.8125,0 0,-9.0625 0,-9.46875 0,-3.3125 -4.5,0 0,3.3125 0,9.46875 0,1.875 -1.1875,-1.875 -5.90625,-9.46875 -2.09375,-3.3125 z m 23.78125,0 0,3.3125 0,0.71875 6.5625,0 0,8.75 0,9.0625 4.78125,0 0,-9.0625 0,-8.75 6.5625,0 0,-0.71875 0,-3.3125 z m 23.25,0 0,3.3125 0,9.46875 0,9.0625 16.5625,0 0,-4.03125 -11.78125,0 0,-5.03125 0,-0.3125 10.59375,0 0,-3.75 -10.59375,0 0,-4.6875 11.53125,0 0,-0.71875 0,-3.3125 z m 22.65625,0 0,3.3125 0,9.46875 0,9.0625 4.78125,0 0,-8.53125 4.8125,0 c 2.41861,0 3.32279,1.01629 3.65625,3.3125 0.24482,1.74326 0.16751,3.84271 0.75,5.21875 l 4.8125,0 c -0.85686,-1.22408 -0.84886,-3.78021 -0.9375,-5.15625 -0.1013,-1.42247 -0.40581,-2.88478 -1.25,-3.90625 -0.46431,-0.55717 -1.0705,-1.00348 -1.90625,-1.21875 2.41861,-1.03836 3.4375,-2.96068 3.4375,-5.53125 0,-0.97504 -0.21557,-1.89988 -0.625,-2.71875 -0.9666,-1.95853 -2.99371,-3.3125 -5.75,-3.3125 z m 4.8125,3.75 5.25,0 c 2.14003,0 3.3125,0.92077 3.3125,3.03125 0,2.20334 -1.17247,3.09375 -3.3125,3.09375 l -5.25,0 z m -347.71875,1.625 2.59375,7.40625 0.21875,0.625 -5.65625,0 0.21875,-0.625 z m 49.28125,0 2.59375,7.40625 0.21875,0.625 -5.65625,0 0.21875,-0.625 z"
         transform="matrix(0.23691255,0,0,-0.23691255,429.54191,650.02164)"
         id="path50"
         style="fill:#004782;fill-opacity:1;fill-rule:evenodd;stroke:none" /><g
         transform="translate(449.4058,524.0357)"
         id="g52" /><g
         transform="translate(451.2767,524.0357)"
         id="g56" /></g></g></svg>